<svg preserveAspectRatio="none" width="100%" height="100%" overflow="visible" style="display: block;" viewBox="0 0 22 22" fill="none" xmlns="http://www.w3.org/2000/svg">
<path id="Icon" d="M0.578947 13.8947C0.424561 13.8947 0.289474 13.8368 0.173684 13.7211C0.0578947 13.6053 0 13.4702 0 13.3158C0 13.1614 0.0578947 13.0263 0.173684 12.9105C0.289474 12.7947 0.424561 12.7368 0.578947 12.7368C0.733333 12.7368 0.868421 12.7947 0.984211 12.9105C1.1 13.0263 1.15789 13.1614 1.15789 13.3158C1.15789 13.4702 1.1 13.6053 0.984211 13.7211C0.868421 13.8368 0.733333 13.8947 0.578947 13.8947V13.8947M0.578947 9.26316C0.424561 9.26316 0.289474 9.20526 0.173684 9.08947C0.0578947 8.97368 0 8.8386 0 8.68421C0 8.52982 0.0578947 8.39474 0.173684 8.27895C0.289474 8.16316 0.424561 8.10526 0.578947 8.10526C0.733333 8.10526 0.868421 8.16316 0.984211 8.27895C1.1 8.39474 1.15789 8.52982 1.15789 8.68421C1.15789 8.8386 1.1 8.97368 0.984211 9.08947C0.868421 9.20526 0.733333 9.26316 0.578947 9.26316V9.26316M4.05263 19.1053C3.72456 19.1053 3.44956 18.9943 3.22763 18.7724C3.0057 18.5504 2.89474 18.2754 2.89474 17.9474C2.89474 17.6193 3.0057 17.3443 3.22763 17.1224C3.44956 16.9004 3.72456 16.7895 4.05263 16.7895C4.3807 16.7895 4.6557 16.9004 4.87763 17.1224C5.09956 17.3443 5.21053 17.6193 5.21053 17.9474C5.21053 18.2754 5.09956 18.5504 4.87763 18.7724C4.6557 18.9943 4.3807 19.1053 4.05263 19.1053V19.1053M4.05263 14.4737C3.72456 14.4737 3.44956 14.3627 3.22763 14.1408C3.0057 13.9189 2.89474 13.6439 2.89474 13.3158C2.89474 12.9877 3.0057 12.7127 3.22763 12.4908C3.44956 12.2689 3.72456 12.1579 4.05263 12.1579C4.3807 12.1579 4.6557 12.2689 4.87763 12.4908C5.09956 12.7127 5.21053 12.9877 5.21053 13.3158C5.21053 13.6439 5.09956 13.9189 4.87763 14.1408C4.6557 14.3627 4.3807 14.4737 4.05263 14.4737V14.4737M4.05263 9.84211C3.72456 9.84211 3.44956 9.73114 3.22763 9.50921C3.0057 9.28728 2.89474 9.01228 2.89474 8.68421C2.89474 8.35614 3.0057 8.08114 3.22763 7.85921C3.44956 7.63728 3.72456 7.52632 4.05263 7.52632C4.3807 7.52632 4.6557 7.63728 4.87763 7.85921C5.09956 8.08114 5.21053 8.35614 5.21053 8.68421C5.21053 9.01228 5.09956 9.28728 4.87763 9.50921C4.6557 9.73114 4.3807 9.84211 4.05263 9.84211V9.84211M4.05263 5.21053C3.72456 5.21053 3.44956 5.09956 3.22763 4.87763C3.0057 4.6557 2.89474 4.3807 2.89474 4.05263C2.89474 3.72456 3.0057 3.44956 3.22763 3.22763C3.44956 3.0057 3.72456 2.89474 4.05263 2.89474C4.3807 2.89474 4.6557 3.0057 4.87763 3.22763C5.09956 3.44956 5.21053 3.72456 5.21053 4.05263C5.21053 4.3807 5.09956 4.6557 4.87763 4.87763C4.6557 5.09956 4.3807 5.21053 4.05263 5.21053V5.21053M8.68421 15.0526C8.20175 15.0526 7.79167 14.8838 7.45395 14.5461C7.11623 14.2083 6.94737 13.7982 6.94737 13.3158C6.94737 12.8333 7.11623 12.4232 7.45395 12.0855C7.79167 11.7478 8.20175 11.5789 8.68421 11.5789C9.16667 11.5789 9.57675 11.7478 9.91447 12.0855C10.2522 12.4232 10.4211 12.8333 10.4211 13.3158C10.4211 13.7982 10.2522 14.2083 9.91447 14.5461C9.57675 14.8838 9.16667 15.0526 8.68421 15.0526V15.0526M8.68421 10.4211C8.20175 10.4211 7.79167 10.2522 7.45395 9.91447C7.11623 9.57675 6.94737 9.16667 6.94737 8.68421C6.94737 8.20175 7.11623 7.79167 7.45395 7.45395C7.79167 7.11623 8.20175 6.94737 8.68421 6.94737C9.16667 6.94737 9.57675 7.11623 9.91447 7.45395C10.2522 7.79167 10.4211 8.20175 10.4211 8.68421C10.4211 9.16667 10.2522 9.57675 9.91447 9.91447C9.57675 10.2522 9.16667 10.4211 8.68421 10.4211V10.4211M8.68421 19.1053C8.35614 19.1053 8.08114 18.9943 7.85921 18.7724C7.63728 18.5504 7.52632 18.2754 7.52632 17.9474C7.52632 17.6193 7.63728 17.3443 7.85921 17.1224C8.08114 16.9004 8.35614 16.7895 8.68421 16.7895C9.01228 16.7895 9.28728 16.9004 9.50921 17.1224C9.73114 17.3443 9.84211 17.6193 9.84211 17.9474C9.84211 18.2754 9.73114 18.5504 9.50921 18.7724C9.28728 18.9943 9.01228 19.1053 8.68421 19.1053V19.1053M8.68421 5.21053C8.35614 5.21053 8.08114 5.09956 7.85921 4.87763C7.63728 4.6557 7.52632 4.3807 7.52632 4.05263C7.52632 3.72456 7.63728 3.44956 7.85921 3.22763C8.08114 3.0057 8.35614 2.89474 8.68421 2.89474C9.01228 2.89474 9.28728 3.0057 9.50921 3.22763C9.73114 3.44956 9.84211 3.72456 9.84211 4.05263C9.84211 4.3807 9.73114 4.6557 9.50921 4.87763C9.28728 5.09956 9.01228 5.21053 8.68421 5.21053V5.21053M8.68421 22C8.52982 22 8.39474 21.9421 8.27895 21.8263C8.16316 21.7105 8.10526 21.5754 8.10526 21.4211C8.10526 21.2667 8.16316 21.1316 8.27895 21.0158C8.39474 20.9 8.52982 20.8421 8.68421 20.8421C8.8386 20.8421 8.97368 20.9 9.08947 21.0158C9.20526 21.1316 9.26316 21.2667 9.26316 21.4211C9.26316 21.5754 9.20526 21.7105 9.08947 21.8263C8.97368 21.9421 8.8386 22 8.68421 22V22M8.68421 1.15789C8.52982 1.15789 8.39474 1.1 8.27895 0.984211C8.16316 0.868421 8.10526 0.733333 8.10526 0.578947C8.10526 0.424561 8.16316 0.289474 8.27895 0.173684C8.39474 0.0578947 8.52982 0 8.68421 0C8.8386 0 8.97368 0.0578947 9.08947 0.173684C9.20526 0.289474 9.26316 0.424561 9.26316 0.578947C9.26316 0.733333 9.20526 0.868421 9.08947 0.984211C8.97368 1.1 8.8386 1.15789 8.68421 1.15789V1.15789M13.3158 15.0526C12.8333 15.0526 12.4232 14.8838 12.0855 14.5461C11.7478 14.2083 11.5789 13.7982 11.5789 13.3158C11.5789 12.8333 11.7478 12.4232 12.0855 12.0855C12.4232 11.7478 12.8333 11.5789 13.3158 11.5789C13.7982 11.5789 14.2083 11.7478 14.5461 12.0855C14.8838 12.4232 15.0526 12.8333 15.0526 13.3158C15.0526 13.7982 14.8838 14.2083 14.5461 14.5461C14.2083 14.8838 13.7982 15.0526 13.3158 15.0526V15.0526M13.3158 10.4211C12.8333 10.4211 12.4232 10.2522 12.0855 9.91447C11.7478 9.57675 11.5789 9.16667 11.5789 8.68421C11.5789 8.20175 11.7478 7.79167 12.0855 7.45395C12.4232 7.11623 12.8333 6.94737 13.3158 6.94737C13.7982 6.94737 14.2083 7.11623 14.5461 7.45395C14.8838 7.79167 15.0526 8.20175 15.0526 8.68421C15.0526 9.16667 14.8838 9.57675 14.5461 9.91447C14.2083 10.2522 13.7982 10.4211 13.3158 10.4211V10.4211M13.3158 19.1053C12.9877 19.1053 12.7127 18.9943 12.4908 18.7724C12.2689 18.5504 12.1579 18.2754 12.1579 17.9474C12.1579 17.6193 12.2689 17.3443 12.4908 17.1224C12.7127 16.9004 12.9877 16.7895 13.3158 16.7895C13.6439 16.7895 13.9189 16.9004 14.1408 17.1224C14.3627 17.3443 14.4737 17.6193 14.4737 17.9474C14.4737 18.2754 14.3627 18.5504 14.1408 18.7724C13.9189 18.9943 13.6439 19.1053 13.3158 19.1053V19.1053M13.3158 5.21053C12.9877 5.21053 12.7127 5.09956 12.4908 4.87763C12.2689 4.6557 12.1579 4.3807 12.1579 4.05263C12.1579 3.72456 12.2689 3.44956 12.4908 3.22763C12.7127 3.0057 12.9877 2.89474 13.3158 2.89474C13.6439 2.89474 13.9189 3.0057 14.1408 3.22763C14.3627 3.44956 14.4737 3.72456 14.4737 4.05263C14.4737 4.3807 14.3627 4.6557 14.1408 4.87763C13.9189 5.09956 13.6439 5.21053 13.3158 5.21053V5.21053M13.3158 22C13.1614 22 13.0263 21.9421 12.9105 21.8263C12.7947 21.7105 12.7368 21.5754 12.7368 21.4211C12.7368 21.2667 12.7947 21.1316 12.9105 21.0158C13.0263 20.9 13.1614 20.8421 13.3158 20.8421C13.4702 20.8421 13.6053 20.9 13.7211 21.0158C13.8368 21.1316 13.8947 21.2667 13.8947 21.4211C13.8947 21.5754 13.8368 21.7105 13.7211 21.8263C13.6053 21.9421 13.4702 22 13.3158 22V22M13.3158 1.15789C13.1614 1.15789 13.0263 1.1 12.9105 0.984211C12.7947 0.868421 12.7368 0.733333 12.7368 0.578947C12.7368 0.424561 12.7947 0.289474 12.9105 0.173684C13.0263 0.0578947 13.1614 0 13.3158 0C13.4702 0 13.6053 0.0578947 13.7211 0.173684C13.8368 0.289474 13.8947 0.424561 13.8947 0.578947C13.8947 0.733333 13.8368 0.868421 13.7211 0.984211C13.6053 1.1 13.4702 1.15789 13.3158 1.15789V1.15789M17.9474 19.1053C17.6193 19.1053 17.3443 18.9943 17.1224 18.7724C16.9004 18.5504 16.7895 18.2754 16.7895 17.9474C16.7895 17.6193 16.9004 17.3443 17.1224 17.1224C17.3443 16.9004 17.6193 16.7895 17.9474 16.7895C18.2754 16.7895 18.5504 16.9004 18.7724 17.1224C18.9943 17.3443 19.1053 17.6193 19.1053 17.9474C19.1053 18.2754 18.9943 18.5504 18.7724 18.7724C18.5504 18.9943 18.2754 19.1053 17.9474 19.1053V19.1053M17.9474 14.4737C17.6193 14.4737 17.3443 14.3627 17.1224 14.1408C16.9004 13.9189 16.7895 13.6439 16.7895 13.3158C16.7895 12.9877 16.9004 12.7127 17.1224 12.4908C17.3443 12.2689 17.6193 12.1579 17.9474 12.1579C18.2754 12.1579 18.5504 12.2689 18.7724 12.4908C18.9943 12.7127 19.1053 12.9877 19.1053 13.3158C19.1053 13.6439 18.9943 13.9189 18.7724 14.1408C18.5504 14.3627 18.2754 14.4737 17.9474 14.4737V14.4737M17.9474 9.84211C17.6193 9.84211 17.3443 9.73114 17.1224 9.50921C16.9004 9.28728 16.7895 9.01228 16.7895 8.68421C16.7895 8.35614 16.9004 8.08114 17.1224 7.85921C17.3443 7.63728 17.6193 7.52632 17.9474 7.52632C18.2754 7.52632 18.5504 7.63728 18.7724 7.85921C18.9943 8.08114 19.1053 8.35614 19.1053 8.68421C19.1053 9.01228 18.9943 9.28728 18.7724 9.50921C18.5504 9.73114 18.2754 9.84211 17.9474 9.84211V9.84211M17.9474 5.21053C17.6193 5.21053 17.3443 5.09956 17.1224 4.87763C16.9004 4.6557 16.7895 4.3807 16.7895 4.05263C16.7895 3.72456 16.9004 3.44956 17.1224 3.22763C17.3443 3.0057 17.6193 2.89474 17.9474 2.89474C18.2754 2.89474 18.5504 3.0057 18.7724 3.22763C18.9943 3.44956 19.1053 3.72456 19.1053 4.05263C19.1053 4.3807 18.9943 4.6557 18.7724 4.87763C18.5504 5.09956 18.2754 5.21053 17.9474 5.21053V5.21053M21.4211 13.8947C21.2667 13.8947 21.1316 13.8368 21.0158 13.7211C20.9 13.6053 20.8421 13.4702 20.8421 13.3158C20.8421 13.1614 20.9 13.0263 21.0158 12.9105C21.1316 12.7947 21.2667 12.7368 21.4211 12.7368C21.5754 12.7368 21.7105 12.7947 21.8263 12.9105C21.9421 13.0263 22 13.1614 22 13.3158C22 13.4702 21.9421 13.6053 21.8263 13.7211C21.7105 13.8368 21.5754 13.8947 21.4211 13.8947V13.8947M21.4211 9.26316C21.2667 9.26316 21.1316 9.20526 21.0158 9.08947C20.9 8.97368 20.8421 8.8386 20.8421 8.68421C20.8421 8.52982 20.9 8.39474 21.0158 8.27895C21.1316 8.16316 21.2667 8.10526 21.4211 8.10526C21.5754 8.10526 21.7105 8.16316 21.8263 8.27895C21.9421 8.39474 22 8.52982 22 8.68421C22 8.8386 21.9421 8.97368 21.8263 9.08947C21.7105 9.20526 21.5754 9.26316 21.4211 9.26316V9.26316" fill="var(--fill-0, #2D8CEB)"/>
</svg>
