<svg preserveAspectRatio="none" width="100%" height="100%" overflow="visible" style="display: block;" viewBox="0 0 20 20" fill="none" xmlns="http://www.w3.org/2000/svg">
<path id="Vector" d="M4.61538 9.47368C4.00928 9.47368 3.40912 9.35116 2.84915 9.11311C2.28919 8.87507 1.78039 8.52615 1.35181 8.0863C0.923237 7.64644 0.58327 7.12425 0.351325 6.54955C0.11938 5.97485 0 5.35889 0 4.73684C0 4.11479 0.11938 3.49883 0.351325 2.92413C0.58327 2.34943 0.923237 1.82725 1.35181 1.38739C1.78039 0.947532 2.28919 0.598619 2.84915 0.360571C3.40912 0.122522 4.00928 -9.26928e-09 4.61538 0C5.83946 1.87202e-08 7.0134 0.499059 7.87895 1.38739C8.74451 2.27572 9.23077 3.48055 9.23077 4.73684C9.23077 5.99313 8.74451 7.19796 7.87895 8.0863C7.0134 8.97463 5.83946 9.47368 4.61538 9.47368V9.47368ZM5.12821 20C3.90413 20 2.73019 19.5009 1.86464 18.6126C0.999083 17.7243 0.512821 16.5194 0.512821 15.2632C0.512821 14.0069 0.999083 12.802 1.86464 11.9137C2.73019 11.0254 3.90413 10.5263 5.12821 10.5263C6.35228 10.5263 7.52622 11.0254 8.39177 11.9137C9.25733 12.802 9.74359 14.0069 9.74359 15.2632C9.74359 16.5194 9.25733 17.7243 8.39177 18.6126C7.52622 19.5009 6.35228 20 5.12821 20V20ZM15.3846 9.47368C14.7785 9.47368 14.1783 9.35116 13.6184 9.11311C13.0584 8.87507 12.5496 8.52615 12.121 8.0863C11.6925 7.64644 11.3525 7.12425 11.1206 6.54955C10.8886 5.97485 10.7692 5.35889 10.7692 4.73684C10.7692 4.11479 10.8886 3.49883 11.1206 2.92413C11.3525 2.34943 11.6925 1.82725 12.121 1.38739C12.5496 0.947532 13.0584 0.598619 13.6184 0.360571C14.1783 0.122522 14.7785 -9.26928e-09 15.3846 0C16.6087 1.87202e-08 17.7826 0.499059 18.6482 1.38739C19.5137 2.27572 20 3.48055 20 4.73684C20 5.99313 19.5137 7.19796 18.6482 8.0863C17.7826 8.97463 16.6087 9.47368 15.3846 9.47368V9.47368ZM15.3846 20C14.1605 20 12.9866 19.5009 12.121 18.6126C11.2555 17.7243 10.7692 16.5194 10.7692 15.2632C10.7692 14.0069 11.2555 12.802 12.121 11.9137C12.9866 11.0254 14.1605 10.5263 15.3846 10.5263C16.6087 10.5263 17.7826 11.0254 18.6482 11.9137C19.5137 12.802 20 14.0069 20 15.2632C20 16.5194 19.5137 17.7243 18.6482 18.6126C17.7826 19.5009 16.6087 20 15.3846 20ZM4.61538 7.36842C5.29543 7.36842 5.94762 7.09117 6.42848 6.59765C6.90934 6.10413 7.17949 5.43478 7.17949 4.73684C7.17949 4.0389 6.90934 3.36955 6.42848 2.87603C5.94762 2.38252 5.29543 2.10526 4.61538 2.10526C3.93534 2.10526 3.28315 2.38252 2.80229 2.87603C2.32143 3.36955 2.05128 4.0389 2.05128 4.73684C2.05128 5.43478 2.32143 6.10413 2.80229 6.59765C3.28315 7.09117 3.93534 7.36842 4.61538 7.36842V7.36842ZM5.12821 17.8947C5.80825 17.8947 6.46044 17.6175 6.9413 17.124C7.42216 16.6304 7.69231 15.9611 7.69231 15.2632C7.69231 14.5652 7.42216 13.8959 6.9413 13.4024C6.46044 12.9088 5.80825 12.6316 5.12821 12.6316C4.44816 12.6316 3.79597 12.9088 3.31511 13.4024C2.83425 13.8959 2.5641 14.5652 2.5641 15.2632C2.5641 15.9611 2.83425 16.6304 3.31511 17.124C3.79597 17.6175 4.44816 17.8947 5.12821 17.8947ZM15.3846 7.36842C16.0647 7.36842 16.7168 7.09117 17.1977 6.59765C17.6786 6.10413 17.9487 5.43478 17.9487 4.73684C17.9487 4.0389 17.6786 3.36955 17.1977 2.87603C16.7168 2.38252 16.0647 2.10526 15.3846 2.10526C14.7046 2.10526 14.0524 2.38252 13.5715 2.87603C13.0907 3.36955 12.8205 4.0389 12.8205 4.73684C12.8205 5.43478 13.0907 6.10413 13.5715 6.59765C14.0524 7.09117 14.7046 7.36842 15.3846 7.36842ZM15.3846 17.8947C16.0647 17.8947 16.7168 17.6175 17.1977 17.124C17.6786 16.6304 17.9487 15.9611 17.9487 15.2632C17.9487 14.5652 17.6786 13.8959 17.1977 13.4024C16.7168 12.9088 16.0647 12.6316 15.3846 12.6316C14.7046 12.6316 14.0524 12.9088 13.5715 13.4024C13.0907 13.8959 12.8205 14.5652 12.8205 15.2632C12.8205 15.9611 13.0907 16.6304 13.5715 17.124C14.0524 17.6175 14.7046 17.8947 15.3846 17.8947Z" fill="var(--fill-0, #0687EF)"/>
</svg>
