<svg preserveAspectRatio="none" width="100%" height="100%" overflow="visible" style="display: block;" viewBox="0 0 22 20" fill="none" xmlns="http://www.w3.org/2000/svg">
<path id="Icon" d="M14.3 20V16.6667H9.9V5.55556H7.7V8.88889H0V0H7.7V3.33333H14.3V0H22V8.88889H14.3V5.55556H12.1V14.4444H14.3V11.1111H22V20H14.3V20M2.2 2.22222V2.22222V6.66667V6.66667V2.22222V2.22222M16.5 13.3333V13.3333V17.7778V17.7778V13.3333V13.3333M16.5 2.22222V2.22222V6.66667V6.66667V2.22222V2.22222M16.5 6.66667H19.8V2.22222H16.5V6.66667V6.66667M16.5 17.7778H19.8V13.3333H16.5V17.7778V17.7778M2.2 6.66667H5.5V2.22222H2.2V6.66667V6.66667" fill="var(--fill-0, #0687EF)"/>
</svg>
