<svg width="24" height="24" viewBox="0 0 24 24" fill="none" xmlns="http://www.w3.org/2000/svg">
  <rect x="4.42" y="4.42" width="15.17" height="15.17" fill="#A3D4FF"/>
  <path transform="translate(2, 2)" d="M10.0818 8.56062C10.0818 6.9613 8.92198 6.44122 7.4008 6.44122H5.00061V13.803H6.16042V10.8021H7.36174L9.04163 13.7614H10.3626L8.56305 10.6409C9.48114 10.3626 10.0818 9.68136 10.0818 8.56062ZM7.28116 9.88158H6.16042V7.36174H7.28116C8.36039 7.36174 8.92198 7.6816 8.92198 8.56306C8.91954 9.44207 8.36039 9.88158 7.28116 9.88158ZM18.4007 0H1.59932C0.720302 0 0 0.720303 0 1.59932V18.4007C0 19.2797 0.720302 20 1.59932 20H18.4007C19.2797 20 20 19.2797 20 18.4007V1.60176C20.0024 0.720303 19.2821 0 18.4007 0ZM18.8011 18.0027C18.8011 18.4422 18.4422 18.8036 18.0002 18.8036H1.99976C1.56025 18.8036 1.19888 18.4446 1.19888 18.0027V1.99976C1.19888 1.56025 1.55781 1.19888 1.99976 1.19888H18.0027C18.4422 1.19888 18.8036 1.55781 18.8036 1.99976V18.0027H18.8011ZM13.8005 6.44122H11.559V13.803H12.7188V11.0023H13.8396C15.4389 11.0023 16.6011 10.243 16.6011 8.64119C16.6011 7.00037 15.4413 6.44122 13.8005 6.44122ZM13.7224 10.0818H12.7213V7.36174H13.6809C14.8407 7.36174 15.4804 7.6816 15.4804 8.64119C15.4413 9.60078 14.8822 10.0818 13.7224 10.0818Z" fill="#2A5082"/>
</svg>
