<svg width="253" height="46" viewBox="0 0 253 46" fill="none" xmlns="http://www.w3.org/2000/svg">
<rect x="0.5" y="0.5" width="71.3333" height="45" rx="1.5" fill="white"/>
<rect x="0.5" y="0.5" width="71.3333" height="45" rx="1.5" stroke="#E5E6E9"/>
<rect x="12.167" y="9" width="48" height="4" rx="2" fill="#F2F3F7"/>
<rect x="12.167" y="21" width="48" height="4" rx="2" fill="#F2F3F7"/>
<rect x="12.167" y="33" width="48" height="4" rx="2" fill="#F2F3F7"/>
<rect x="76.333" y="18" width="10" height="10" rx="2" fill="#E2E8F0"/>
<rect x="90.833" y="0.5" width="71.3333" height="45" rx="1.5" fill="white"/>
<rect x="90.833" y="0.5" width="71.3333" height="45" rx="1.5" stroke="#E5E6E9"/>
<rect x="102.5" y="9" width="48" height="4" rx="2" fill="#F2F3F7"/>
<rect x="102.5" y="21" width="48" height="4" rx="2" fill="#F2F3F7"/>
<rect x="102.5" y="33" width="48" height="4" rx="2" fill="#F2F3F7"/>
<rect x="166.667" y="18" width="10" height="10" rx="2" fill="#E2E8F0"/>
<rect x="181.167" y="0.5" width="71.3333" height="45" rx="1.5" fill="white"/>
<rect x="181.167" y="0.5" width="71.3333" height="45" rx="1.5" stroke="#E5E6E9"/>
<rect x="192.834" y="9" width="48" height="4" rx="2" fill="#F2F3F7"/>
<rect x="192.834" y="21" width="48" height="4" rx="2" fill="#F2F3F7"/>
<rect x="192.834" y="33" width="48" height="4" rx="2" fill="#F2F3F7"/>
</svg>
