<?xml version="1.0" encoding="utf-8"?>
<svg version="1.1" xmlns:xlink="http://www.w3.org/1999/xlink" width="14px" height="11px" xmlns="http://www.w3.org/2000/svg">
  <defs>
    <pattern id="BGPattern" patternUnits="userSpaceOnUse" alignment="0 0" imageRepeat="None" />
    <mask fill="white" id="Clip495">
      <path d="M 13.826822916666668 8.96328125  C 13.942274305555555 9.072135416666667  14 9.201041666666667  14 9.35  L 14 10.45  C 14 10.598958333333332  13.942274305555555 10.727864583333332  13.826822916666668 10.83671875  C 13.71137152777778 10.945572916666666  13.57465277777778 11  13.416666666666668 11  L 0.5833333333333333 11  C 0.42534722222222227 11  0.2886284722222222 10.945572916666666  0.17317708333333331 10.83671875  C 0.05772569444444445 10.727864583333332  0 10.598958333333332  0 10.45  L 0 9.35  C 0 9.201041666666667  0.05772569444444445 9.072135416666667  0.17317708333333331 8.96328125  C 0.2886284722222222 8.854427083333333  0.42534722222222227 8.8  0.5833333333333333 8.8  L 13.416666666666668 8.8  C 13.57465277777778 8.8  13.71137152777778 8.854427083333333  13.826822916666668 8.96328125  Z M 13.826822916666668 4.563281249999999  C 13.942274305555555 4.672135416666666  14 4.801041666666666  14 4.949999999999999  L 14 6.050000000000001  C 14 6.198958333333333  13.942274305555555 6.327864583333333  13.826822916666668 6.436718750000001  C 13.71137152777778 6.545572916666666  13.57465277777778 6.6  13.416666666666668 6.6  L 0.5833333333333333 6.6  C 0.42534722222222227 6.6  0.2886284722222222 6.545572916666666  0.17317708333333331 6.436718750000001  C 0.05772569444444445 6.327864583333333  0 6.198958333333333  0 6.050000000000001  L 0 4.949999999999999  C 0 4.801041666666666  0.05772569444444445 4.672135416666666  0.17317708333333331 4.563281249999999  C 0.2886284722222222 4.454427083333334  0.42534722222222227 4.4  0.5833333333333333 4.4  L 13.416666666666668 4.4  C 13.57465277777778 4.4  13.71137152777778 4.454427083333334  13.826822916666668 4.563281249999999  Z M 13.826822916666668 0.1632812500000005  C 13.942274305555555 0.27213541666666585  14 0.40104166666666585  14 0.5500000000000005  L 14 1.6500000000000004  C 14 1.7989583333333323  13.942274305555555 1.9278645833333323  13.826822916666668 2.0367187500000004  C 13.71137152777778 2.1455729166666657  13.57465277777778 2.1999999999999993  13.416666666666668 2.1999999999999993  L 0.5833333333333333 2.1999999999999993  C 0.42534722222222227 2.1999999999999993  0.2886284722222222 2.1455729166666657  0.17317708333333331 2.0367187500000004  C 0.05772569444444445 1.9278645833333323  0 1.7989583333333323  0 1.6500000000000004  L 0 0.5500000000000005  C 0 0.40104166666666585  0.05772569444444445 0.27213541666666585  0.17317708333333331 0.1632812500000005  C 0.2886284722222222 0.05442708333333268  0.42534722222222227 0  0.5833333333333333 0  L 13.416666666666668 0  C 13.57465277777778 0  13.71137152777778 0.05442708333333268  13.826822916666668 0.1632812500000005  Z " fill-rule="evenodd" />
    </mask>
  </defs>
  <g transform="matrix(1 0 0 1 -1973 -803 )">
    <path d="M 13.826822916666668 8.96328125  C 13.942274305555555 9.072135416666667  14 9.201041666666667  14 9.35  L 14 10.45  C 14 10.598958333333332  13.942274305555555 10.727864583333332  13.826822916666668 10.83671875  C 13.71137152777778 10.945572916666666  13.57465277777778 11  13.416666666666668 11  L 0.5833333333333333 11  C 0.42534722222222227 11  0.2886284722222222 10.945572916666666  0.17317708333333331 10.83671875  C 0.05772569444444445 10.727864583333332  0 10.598958333333332  0 10.45  L 0 9.35  C 0 9.201041666666667  0.05772569444444445 9.072135416666667  0.17317708333333331 8.96328125  C 0.2886284722222222 8.854427083333333  0.42534722222222227 8.8  0.5833333333333333 8.8  L 13.416666666666668 8.8  C 13.57465277777778 8.8  13.71137152777778 8.854427083333333  13.826822916666668 8.96328125  Z M 13.826822916666668 4.563281249999999  C 13.942274305555555 4.672135416666666  14 4.801041666666666  14 4.949999999999999  L 14 6.050000000000001  C 14 6.198958333333333  13.942274305555555 6.327864583333333  13.826822916666668 6.436718750000001  C 13.71137152777778 6.545572916666666  13.57465277777778 6.6  13.416666666666668 6.6  L 0.5833333333333333 6.6  C 0.42534722222222227 6.6  0.2886284722222222 6.545572916666666  0.17317708333333331 6.436718750000001  C 0.05772569444444445 6.327864583333333  0 6.198958333333333  0 6.050000000000001  L 0 4.949999999999999  C 0 4.801041666666666  0.05772569444444445 4.672135416666666  0.17317708333333331 4.563281249999999  C 0.2886284722222222 4.454427083333334  0.42534722222222227 4.4  0.5833333333333333 4.4  L 13.416666666666668 4.4  C 13.57465277777778 4.4  13.71137152777778 4.454427083333334  13.826822916666668 4.563281249999999  Z M 13.826822916666668 0.1632812500000005  C 13.942274305555555 0.27213541666666585  14 0.40104166666666585  14 0.5500000000000005  L 14 1.6500000000000004  C 14 1.7989583333333323  13.942274305555555 1.9278645833333323  13.826822916666668 2.0367187500000004  C 13.71137152777778 2.1455729166666657  13.57465277777778 2.1999999999999993  13.416666666666668 2.1999999999999993  L 0.5833333333333333 2.1999999999999993  C 0.42534722222222227 2.1999999999999993  0.2886284722222222 2.1455729166666657  0.17317708333333331 2.0367187500000004  C 0.05772569444444445 1.9278645833333323  0 1.7989583333333323  0 1.6500000000000004  L 0 0.5500000000000005  C 0 0.40104166666666585  0.05772569444444445 0.27213541666666585  0.17317708333333331 0.1632812500000005  C 0.2886284722222222 0.05442708333333268  0.42534722222222227 0  0.5833333333333333 0  L 13.416666666666668 0  C 13.57465277777778 0  13.71137152777778 0.05442708333333268  13.826822916666668 0.1632812500000005  Z " fill-rule="nonzero" fill="rgba(0, 0, 0, 1)" stroke="none" transform="matrix(1 0 0 1 1973 803 )" class="fill" />
    <path d="M 13.826822916666668 8.96328125  C 13.942274305555555 9.072135416666667  14 9.201041666666667  14 9.35  L 14 10.45  C 14 10.598958333333332  13.942274305555555 10.727864583333332  13.826822916666668 10.83671875  C 13.71137152777778 10.945572916666666  13.57465277777778 11  13.416666666666668 11  L 0.5833333333333333 11  C 0.42534722222222227 11  0.2886284722222222 10.945572916666666  0.17317708333333331 10.83671875  C 0.05772569444444445 10.727864583333332  0 10.598958333333332  0 10.45  L 0 9.35  C 0 9.201041666666667  0.05772569444444445 9.072135416666667  0.17317708333333331 8.96328125  C 0.2886284722222222 8.854427083333333  0.42534722222222227 8.8  0.5833333333333333 8.8  L 13.416666666666668 8.8  C 13.57465277777778 8.8  13.71137152777778 8.854427083333333  13.826822916666668 8.96328125  Z " stroke-width="0" stroke-dasharray="0" stroke="rgba(255, 255, 255, 0)" fill="none" transform="matrix(1 0 0 1 1973 803 )" class="stroke" mask="url(#Clip495)" />
    <path d="M 13.826822916666668 4.563281249999999  C 13.942274305555555 4.672135416666666  14 4.801041666666666  14 4.949999999999999  L 14 6.050000000000001  C 14 6.198958333333333  13.942274305555555 6.327864583333333  13.826822916666668 6.436718750000001  C 13.71137152777778 6.545572916666666  13.57465277777778 6.6  13.416666666666668 6.6  L 0.5833333333333333 6.6  C 0.42534722222222227 6.6  0.2886284722222222 6.545572916666666  0.17317708333333331 6.436718750000001  C 0.05772569444444445 6.327864583333333  0 6.198958333333333  0 6.050000000000001  L 0 4.949999999999999  C 0 4.801041666666666  0.05772569444444445 4.672135416666666  0.17317708333333331 4.563281249999999  C 0.2886284722222222 4.454427083333334  0.42534722222222227 4.4  0.5833333333333333 4.4  L 13.416666666666668 4.4  C 13.57465277777778 4.4  13.71137152777778 4.454427083333334  13.826822916666668 4.563281249999999  Z " stroke-width="0" stroke-dasharray="0" stroke="rgba(255, 255, 255, 0)" fill="none" transform="matrix(1 0 0 1 1973 803 )" class="stroke" mask="url(#Clip495)" />
    <path d="M 13.826822916666668 0.1632812500000005  C 13.942274305555555 0.27213541666666585  14 0.40104166666666585  14 0.5500000000000005  L 14 1.6500000000000004  C 14 1.7989583333333323  13.942274305555555 1.9278645833333323  13.826822916666668 2.0367187500000004  C 13.71137152777778 2.1455729166666657  13.57465277777778 2.1999999999999993  13.416666666666668 2.1999999999999993  L 0.5833333333333333 2.1999999999999993  C 0.42534722222222227 2.1999999999999993  0.2886284722222222 2.1455729166666657  0.17317708333333331 2.0367187500000004  C 0.05772569444444445 1.9278645833333323  0 1.7989583333333323  0 1.6500000000000004  L 0 0.5500000000000005  C 0 0.40104166666666585  0.05772569444444445 0.27213541666666585  0.17317708333333331 0.1632812500000005  C 0.2886284722222222 0.05442708333333268  0.42534722222222227 0  0.5833333333333333 0  L 13.416666666666668 0  C 13.57465277777778 0  13.71137152777778 0.05442708333333268  13.826822916666668 0.1632812500000005  Z " stroke-width="0" stroke-dasharray="0" stroke="rgba(255, 255, 255, 0)" fill="none" transform="matrix(1 0 0 1 1973 803 )" class="stroke" mask="url(#Clip495)" />
  </g>
</svg>