<?xml version="1.0" encoding="utf-8"?>
<svg version="1.1" xmlns:xlink="http://www.w3.org/1999/xlink" width="34px" height="34px" xmlns="http://www.w3.org/2000/svg">
  <defs>
    <pattern id="BGPattern" patternUnits="userSpaceOnUse" alignment="0 0" imageRepeat="None" />
    <mask fill="white" id="Clip467">
      <path d="M 0 12  C 0 5.279999999999999  5.279999999999999 0  12 0  C 18.72 0  24 5.279999999999999  24 12  C 24 18.72  18.72 24  12 24  C 5.279999999999999 24  0 18.72  0 12  Z " fill-rule="evenodd" />
    </mask>
  </defs>
  <g transform="matrix(1 0 0 1 -593 -1751 )">
    <path d="M 0 12  C 0 5.279999999999999  5.279999999999999 0  12 0  C 18.72 0  24 5.279999999999999  24 12  C 24 18.72  18.72 24  12 24  C 5.279999999999999 24  0 18.72  0 12  Z " fill-rule="nonzero" fill="rgba(250, 65, 80, 1)" stroke="none" transform="matrix(1 0 0 1 598 1754 )" class="fill" />
    <path d="M 0 12  C 0 5.279999999999999  5.279999999999999 0  12 0  C 18.72 0  24 5.279999999999999  24 12  C 24 18.72  18.72 24  12 24  C 5.279999999999999 24  0 18.72  0 12  Z " stroke-width="2" stroke-dasharray="0" stroke="rgba(255, 255, 255, 1)" fill="none" transform="matrix(1 0 0 1 598 1754 )" class="stroke" mask="url(#Clip467)" />
  </g>
  <style>svg { filter: drop-shadow(0px 2px 2.5px rgba(170, 170, 170, 1)); }</style>
</svg>