<?xml version="1.0" encoding="utf-8"?>
<svg version="1.1" xmlns:xlink="http://www.w3.org/1999/xlink" width="16px" height="16px" xmlns="http://www.w3.org/2000/svg">
  <defs>
    <pattern id="BGPattern" patternUnits="userSpaceOnUse" alignment="0 0" imageRepeat="None" />
    <mask fill="white" id="Clip357">
      <path d="M 0 16  L 0 0  L 16 0  L 16 16  L 0 16  Z " fill-rule="evenodd" />
    </mask>
  </defs>
  <g transform="matrix(1 0 0 1 -10 -598 )">
    <path d="M 0 16  L 0 0  L 16 0  L 16 16  L 0 16  Z " fill-rule="nonzero" fill="rgba(255, 255, 255, 0)" stroke="none" transform="matrix(1 0 0 1 10 598 )" class="fill" />
    <path d="M 0 16  L 0 0  L 16 0  L 16 16  L 0 16  Z " stroke-width="2" stroke-dasharray="0" stroke="rgba(223, 230, 236, 1)" fill="none" transform="matrix(1 0 0 1 10 598 )" class="stroke" mask="url(#Clip357)" />
    <path d="M 15.646446609406727 0.35355339059327373  L 0.35355339059327373 15.646446609406727  M 0.35355339059327373 0.35355339059327373  L 15.646446609406727 15.646446609406727  " stroke-width="1" stroke-dasharray="0" stroke="rgba(223, 230, 236, 1)" fill="none" transform="matrix(1 0 0 1 10 598 )" class="stroke" />
  </g>
</svg>