<?xml version="1.0" encoding="utf-8"?>
<svg version="1.1" xmlns:xlink="http://www.w3.org/1999/xlink" width="12px" height="12px" xmlns="http://www.w3.org/2000/svg">
  <defs>
    <pattern id="BGPattern" patternUnits="userSpaceOnUse" alignment="0 0" imageRepeat="None" />
    <mask fill="white" id="Clip450">
      <path d="M 5.538461538461538 12  L 5.538468883618197 6.461538461538463  L 0 6.461538461538463  L 0 5.538461538461538  L 5.538461538461538 5.53846151619621  L 5.538461538461538 0  L 6.461538461538463 0  L 6.461531116381804 5.538461538461538  L 12 5.538461538461538  L 12 6.461538461538463  L 6.461538461538463 6.461538483803791  L 6.461538461538463 12  L 5.538461538461538 12  Z " fill-rule="evenodd" />
    </mask>
  </defs>
  <g transform="matrix(1 0 0 1 -547 -163 )">
    <path d="M 5.538461538461538 12  L 5.538468883618197 6.461538461538463  L 0 6.461538461538463  L 0 5.538461538461538  L 5.538461538461538 5.53846151619621  L 5.538461538461538 0  L 6.461538461538463 0  L 6.461531116381804 5.538461538461538  L 12 5.538461538461538  L 12 6.461538461538463  L 6.461538461538463 6.461538483803791  L 6.461538461538463 12  L 5.538461538461538 12  Z " fill-rule="nonzero" fill="rgba(255, 156, 57, 1)" stroke="none" transform="matrix(1 0 0 1 547 163 )" class="fill" />
    <path d="M 5.538461538461538 12  L 5.538468883618197 6.461538461538463  L 0 6.461538461538463  L 0 5.538461538461538  L 5.538461538461538 5.53846151619621  L 5.538461538461538 0  L 6.461538461538463 0  L 6.461531116381804 5.538461538461538  L 12 5.538461538461538  L 12 6.461538461538463  L 6.461538461538463 6.461538483803791  L 6.461538461538463 12  L 5.538461538461538 12  Z " stroke-width="2" stroke-dasharray="0" stroke="rgba(255, 255, 255, 0)" fill="none" transform="matrix(1 0 0 1 547 163 )" class="stroke" mask="url(#Clip450)" />
  </g>
</svg>