<?xml version="1.0" encoding="utf-8"?>
<svg version="1.1" xmlns:xlink="http://www.w3.org/1999/xlink" width="200px" height="102px" xmlns="http://www.w3.org/2000/svg">
  <defs>
    <pattern id="BGPattern" patternUnits="userSpaceOnUse" alignment="0 0" imageRepeat="None" />
    <mask fill="white" id="Clip497">
      <path d="M 3.9166666666666665 5.625  L 10.575000000000001 5.625  L 16.058321467013336 1.2172896747740326E-05  L 21.541643110172192 6  L 184.08333333333331 6  C 186.27666666666667 5.625  188 7.392857142856997  188 9.642857142857142  L 188 85.98214285714286  C 188 88.232142857143  186.27666666666667 90  184.08333333333331 90  L 3.9166666666666665 90  C 1.7233333333333356 90  0 88.232142857143  0 85.98214285714286  L 0 9.642857142857142  C 0 7.392857142856997  1.7233333333333356 5.625  3.9166666666666665 5.625  Z " fill-rule="evenodd" />
    </mask>
  </defs>
  <g transform="matrix(1 0 0 1 -913 -933 )">
    <path d="M 3.9166666666666665 5.625  L 10.575000000000001 5.625  L 16.058321467013336 1.2172896747740326E-05  L 21.541643110172192 6  L 184.08333333333331 6  C 186.27666666666667 5.625  188 7.392857142856997  188 9.642857142857142  L 188 85.98214285714286  C 188 88.232142857143  186.27666666666667 90  184.08333333333331 90  L 3.9166666666666665 90  C 1.7233333333333356 90  0 88.232142857143  0 85.98214285714286  L 0 9.642857142857142  C 0 7.392857142856997  1.7233333333333356 5.625  3.9166666666666665 5.625  Z " fill-rule="nonzero" fill="rgba(255, 255, 255, 1)" stroke="none" transform="matrix(1 0 0 1 919 937 )" class="fill" />
    <path d="M 3.9166666666666665 5.625  L 10.575000000000001 5.625  L 16.058321467013336 1.2172896747740326E-05  L 21.541643110172192 6  L 184.08333333333331 6  C 186.27666666666667 5.625  188 7.392857142856997  188 9.642857142857142  L 188 85.98214285714286  C 188 88.232142857143  186.27666666666667 90  184.08333333333331 90  L 3.9166666666666665 90  C 1.7233333333333356 90  0 88.232142857143  0 85.98214285714286  L 0 9.642857142857142  C 0 7.392857142856997  1.7233333333333356 5.625  3.9166666666666665 5.625  Z " stroke-width="2" stroke-dasharray="0" stroke="rgba(229, 230, 233, 1)" fill="none" transform="matrix(1 0 0 1 919 937 )" class="stroke" mask="url(#Clip497)" />
  </g>
  <style>svg { filter: drop-shadow(0px 2px 3px rgba(170, 170, 170, 1)); }</style>
</svg>