<svg width="24" height="24" viewBox="0 0 24 24" fill="none" xmlns="http://www.w3.org/2000/svg">
<g clip-path="url(#clip0_46924_2092)">
<path d="M0.666626 11.3334L5.99996 6.66669L16.6666 7.33335L17.3333 18L12.6666 23.3334C12.6666 23.3334 12.6673 19.334 8.66663 15.3334C4.66596 11.3327 0.666626 11.3334 0.666626 11.3334Z" fill="#A0041E"/>
<path d="M0.648695 23.3333C0.648695 23.3333 0.624695 18.014 2.63869 16C4.65269 13.986 10 14.1247 10 14.1247C10 14.1247 9.99936 19.3333 7.99936 21.3333C5.99936 23.3333 0.648695 23.3333 0.648695 23.3333Z" fill="#FFAC33"/>
<path d="M5.99931 20.6666C7.47207 20.6666 8.66597 19.4727 8.66597 18C8.66597 16.5272 7.47207 15.3333 5.99931 15.3333C4.52655 15.3333 3.33264 16.5272 3.33264 18C3.33264 19.4727 4.52655 20.6666 5.99931 20.6666Z" fill="#FFCC4D"/>
<path d="M23.9993 0C23.9993 0 17.3326 0 9.33263 6.66667C5.33263 10 5.33263 16 6.66597 17.3333C7.9993 18.6667 13.9993 18.6667 17.3326 14.6667C23.9993 6.66667 23.9993 0 23.9993 0Z" fill="#55ACEE"/>
<path d="M17.9994 3.33331C16.9174 3.33331 15.9907 3.98065 15.572 4.90665C15.9067 4.75531 16.2754 4.66665 16.666 4.66665C18.1387 4.66665 19.3327 5.86065 19.3327 7.33331C19.3327 7.72398 19.244 8.09265 19.0934 8.42665C20.0194 8.00865 20.666 7.08198 20.666 5.99998C20.666 4.52731 19.472 3.33331 17.9994 3.33331Z" fill="black"/>
<path d="M5.33337 18.6666C5.33337 18.6666 5.33337 16 6.00004 15.3333C6.66671 14.6666 14.6674 8.00064 15.3334 8.66664C15.9994 9.33264 9.33271 17.3333 8.66604 18C7.99937 18.6666 5.33337 18.6666 5.33337 18.6666Z" fill="#A0041E"/>
</g>
<defs>
<clipPath id="clip0_46924_2092">
<rect width="24" height="24" fill="white"/>
</clipPath>
</defs>
</svg>
