<svg width="24" height="24" viewBox="0 0 24 24" fill="none" xmlns="http://www.w3.org/2000/svg">
<g clip-path="url(#clip0_46862_21834)">
<path d="M22 12C22 17.5228 17.5228 22 12 22C6.47722 22 2 17.5228 2 12C2 6.47722 6.47722 2 12 2C17.5228 2 22 6.47722 22 12Z" fill="#FFCC4D"/>
<path fill-rule="evenodd" clip-rule="evenodd" d="M2.68894 8.12111C2.82227 8.25389 3.48783 8.65278 3.62061 9.05167C3.75394 9.45 4.02061 11.7094 4.81949 12.3744C5.64338 13.0589 8.75116 12.8044 9.34616 12.5078C10.6778 11.8439 10.8412 9.99056 11.0767 9.05167C11.2095 8.52 12.0084 8.52 12.0084 8.52C12.0084 8.52 12.8073 8.52 12.9406 9.05111C13.1762 9.99056 13.3406 11.8439 14.6712 12.5072C15.2667 12.8044 18.3745 13.0594 19.1995 12.375C19.9973 11.71 20.2634 9.45056 20.3967 9.05167C20.5289 8.65334 21.1956 8.25445 21.3284 8.12167C21.4623 7.98889 21.4623 7.45722 21.3284 7.32389C21.0623 7.05834 17.9206 6.82167 14.5378 7.19111C13.8628 7.265 13.6062 7.45667 12.0078 7.45667C10.4106 7.45667 10.1528 7.26445 9.47838 7.19111C6.09783 6.82111 2.95561 7.05778 2.68894 7.32334C2.55616 7.45611 2.55616 7.98834 2.68894 8.12111Z" fill="#292F33"/>
<path d="M17.1861 15.1272C17.0872 15.0377 16.9394 15.0322 16.8333 15.1111C16.8117 15.1272 14.6544 16.7222 12 16.7222C9.35221 16.7222 7.18777 15.1272 7.16665 15.1111C7.06054 15.0322 6.91277 15.0388 6.81388 15.1272C6.71554 15.2161 6.69332 15.3627 6.76165 15.4761C6.83332 15.5955 8.54888 18.3888 12 18.3888C15.4511 18.3888 17.1672 15.5955 17.2383 15.4761C17.3067 15.3622 17.285 15.2161 17.1861 15.1272Z" fill="#664500"/>
</g>
<defs>
<clipPath id="clip0_46862_21834">
<rect width="20" height="20" fill="white" transform="translate(2 2)"/>
</clipPath>
</defs>
</svg>
