<svg width="24" height="24" viewBox="0 0 24 24" fill="none" xmlns="http://www.w3.org/2000/svg">
<g clip-path="url(#clip0_46924_2065)">
<path d="M17.3954 3.07464C17.0634 3.40664 16.976 3.63397 16.91 3.76064C16.47 4.60464 15.94 4.87797 15.0567 3.99464C14.97 3.90797 12.332 1.14997 11.896 0.649972C11.6114 0.323305 11.1754 0.223305 10.84 0.475305C10.5867 0.665972 8.15002 2.65731 7.48335 3.47997C6.96735 4.11664 6.95002 4.90264 7.43069 5.38397C7.64802 5.60131 7.91535 5.68331 8.19802 5.76931C8.56602 5.88197 9.37335 5.81464 9.84469 6.28597C10.6 7.04131 10.2047 8.23531 9.23335 9.23331C8.23535 10.2046 7.04135 10.6 6.28602 9.84464C5.81402 9.37264 5.88202 8.56597 5.76935 8.19797C5.68335 7.91531 5.60135 7.64864 5.38402 7.43064C4.90335 6.94997 4.11735 6.96797 3.48002 7.48331C2.65669 8.14997 0.666019 10.5866 0.475353 10.84C0.222686 11.1753 0.323353 11.6106 0.650019 11.896C1.15002 12.332 3.90802 14.97 3.99469 15.0566C4.87735 15.9393 4.60469 16.47 3.76069 16.91C3.63402 16.976 3.40735 17.0626 3.07469 17.3953C2.10002 18.37 2.10002 19.9506 3.07469 20.9253C4.04935 21.9 5.63002 21.9 6.60469 20.9253C6.93669 20.5933 7.02402 20.366 7.09002 20.2393C7.53002 19.3953 8.06002 19.122 8.94335 20.0053C9.03002 20.092 11.668 22.85 12.104 23.35C12.3887 23.6766 12.8247 23.7766 13.16 23.5246C13.4134 23.334 15.85 21.3426 16.5167 20.52C17.0327 19.8833 17.05 19.0973 16.5694 18.616C16.352 18.3986 16.0847 18.3166 15.802 18.2306C15.434 18.118 14.6267 18.1853 14.1554 17.714C13.4 16.9586 13.7954 15.7646 14.7667 14.7666C15.7647 13.7953 16.9587 13.4 17.714 14.1553C18.186 14.6273 18.118 15.434 18.2307 15.802C18.3167 16.0846 18.3987 16.3513 18.616 16.5693C19.0967 17.05 19.8827 17.032 20.52 16.5166C21.3434 15.85 23.334 13.4133 23.5247 13.16C23.7774 12.8246 23.6767 12.3893 23.35 12.104C22.85 11.668 20.092 9.02997 20.0054 8.94331C19.1227 8.06064 19.3954 7.52997 20.2394 7.08997C20.366 7.02397 20.5927 6.93731 20.9254 6.60464C21.9 5.62997 21.9 4.04931 20.9254 3.07464C19.9507 2.09931 18.37 2.09931 17.3954 3.07464Z" fill="#78B159"/>
</g>
<defs>
<clipPath id="clip0_46924_2065">
<rect width="24" height="24" fill="white"/>
</clipPath>
</defs>
</svg>
