<?xml version="1.0" encoding="utf-8"?>
<svg version="1.1" xmlns:xlink="http://www.w3.org/1999/xlink" width="40px" height="4px" xmlns="http://www.w3.org/2000/svg">
  <defs>
    <linearGradient gradientUnits="userSpaceOnUse" x1="0" y1="2" x2="39.66666666666667" y2="2" id="LinearGradient317">
      <stop id="Stop318" stop-color="#ff9c39" offset="0" />
      <stop id="Stop319" stop-color="#ff6600" offset="1" />
    </linearGradient>
    <pattern id="BGPattern" patternUnits="userSpaceOnUse" alignment="0 0" imageRepeat="None" />
    <mask fill="white" id="Clip320">
      <path d="M 2 4  C 0.8799999999999999 4  0 3.12  0 2  C 0 0.8799999999999999  0.8799999999999999 0  2 0  L 38 0  C 39.12 0  40 0.8799999999999999  40 2  C 40 3.12  39.12 4  38 4  L 2 4  Z " fill-rule="evenodd" />
    </mask>
  </defs>
  <g transform="matrix(1 0 0 1 -170 -93 )">
    <path d="M 2 4  C 0.8799999999999999 4  0 3.12  0 2  C 0 0.8799999999999999  0.8799999999999999 0  2 0  L 38 0  C 39.12 0  40 0.8799999999999999  40 2  C 40 3.12  39.12 4  38 4  L 2 4  Z " fill-rule="nonzero" fill="url(#LinearGradient317)" stroke="none" transform="matrix(1 0 0 1 170 93 )" class="fill" />
    <path d="M 2 4  C 0.8799999999999999 4  0 3.12  0 2  C 0 0.8799999999999999  0.8799999999999999 0  2 0  L 38 0  C 39.12 0  40 0.8799999999999999  40 2  C 40 3.12  39.12 4  38 4  L 2 4  Z " stroke-width="0" stroke-dasharray="0" stroke="rgba(229, 230, 233, 1)" fill="none" transform="matrix(1 0 0 1 170 93 )" class="stroke" mask="url(#Clip320)" />
  </g>
</svg>