<?xml version="1.0" encoding="utf-8"?>
<svg version="1.1" xmlns:xlink="http://www.w3.org/1999/xlink" width="12px" height="12px" xmlns="http://www.w3.org/2000/svg">
  <defs>
    <pattern id="BGPattern" patternUnits="userSpaceOnUse" alignment="0 0" imageRepeat="None" />
    <mask fill="white" id="Clip363">
      <path d="M 9 6  C 9 4.356521739130436  7.643478260869565 3  6 3  C 4.356521739130434 3  3 4.356521739130434  3 6  C 3 7.643478260869565  4.356521739130434 9  6 9  C 7.643478260869565 9  9 7.643478260869565  9 6  Z M 8.217391304347826 6  C 8.217391304347826 7.2260869565217405  7.2260869565217405 8.217391304347826  6 8.217391304347826  C 4.773913043478261 8.217391304347826  3.782608695652174 7.2260869565217405  3.782608695652174 6  C 3.782608695652174 4.7739130434782595  4.773913043478261 3.782608695652174  6 3.782608695652174  C 7.2260869565217405 3.782608695652174  8.217391304347826 4.773913043478261  8.217391304347826 6  Z M 11.895652173913046 7.721739130434781  C 11.973913043478262 7.4347826086956506  11.869565217391306 7.147826086956519  11.634782608695653 6.991304347826087  C 11.295652173913044 6.782608695652174  11.08695652173913 6.4173913043478255  11.08695652173913 5.999999999999999  C 11.08695652173913 5.582608695652174  11.295652173913043 5.243478260869565  11.634782608695653 5.0086956521739125  C 11.869565217391305 4.852173913043477  11.97391304347826 4.565217391304347  11.895652173913044 4.278260869565216  C 11.765217391304347 3.8347826086956514  11.582608695652173 3.4173913043478246  11.373913043478261 3.0260869565217376  C 11.243478260869566 2.791304347826086  10.956521739130434 2.6347826086956507  10.669565217391304 2.713043478260868  C 10.278260869565216 2.791304347826086  9.88695652173913 2.6869565217391287  9.6 2.3999999999999986  C 9.31304347826087 2.113043478260868  9.208695652173912 1.7217391304347816  9.286956521739128 1.3304347826086946  C 9.339130434782607 1.0695652173913033  9.208695652173912 0.7826086956521731  8.973913043478259 0.6260869565217378  C 8.582608695652173 0.39130434782608553  8.139130434782606 0.23478260869565087  7.721739130434781 0.10434782608695523  C 7.46086956521739 0.026086956521737648  7.147826086956519 0.13043478260869426  6.991304347826087 0.3652173913043465  C 6.782608695652174 0.7043478260869553  6.4173913043478255 0.9130434782608681  5.999999999999999 0.9130434782608681  C 5.582608695652174 0.9130434782608681  5.243478260869565 0.7043478260869549  5.0086956521739125 0.3652173913043465  C 4.852173913043477 0.13043478260869426  4.565217391304347 0.026086956521737648  4.278260869565216 0.10434782608695523  C 3.8347826086956514 0.23478260869565087  3.4173913043478246 0.41739130434782457  3.0260869565217376 0.6260869565217378  C 2.791304347826086 0.7565217391304334  2.6347826086956507 1.0434782608695639  2.713043478260868 1.3304347826086942  C 2.791304347826086 1.721739130434781  2.6869565217391287 2.139130434782608  2.3999999999999986 2.3999999999999986  C 2.113043478260868 2.6869565217391296  1.7217391304347816 2.791304347826086  1.3304347826086946 2.713043478260868  C 1.0695652173913033 2.66086956521739  0.7826086956521731 2.791304347826086  0.6260869565217378 3.0260869565217376  C 0.39130434782608553 3.4173913043478246  0.23478260869565087 3.8608695652173894  0.10434782608695523 4.278260869565216  C 0.026086956521737648 4.539130434782607  0.13043478260869426 4.852173913043477  0.3652173913043465 5.0086956521739125  C 0.7043478260869553 5.217391304347825  0.9130434782608681 5.582608695652173  0.9130434782608681 5.999999999999999  C 0.9130434782608681 6.4173913043478255  0.7043478260869549 6.756521739130434  0.3652173913043465 6.991304347826087  C 0.13043478260869426 7.147826086956522  0.026086956521737648 7.434782608695652  0.10434782608695523 7.721739130434781  C 0.23478260869565087 8.165217391304347  0.41739130434782457 8.582608695652173  0.6260869565217378 8.973913043478259  C 0.7565217391304334 9.20869565217391  1.0434782608695639 9.339130434782607  1.3304347826086942 9.286956521739128  C 1.721739130434781 9.208695652173912  2.139130434782608 9.31304347826087  2.3999999999999986 9.6  C 2.6869565217391296 9.88695652173913  2.791304347826086 10.278260869565216  2.713043478260868 10.669565217391304  C 2.66086956521739 10.930434782608696  2.791304347826086 11.217391304347826  3.0260869565217376 11.373913043478261  C 3.4173913043478246 11.608695652173912  3.8608695652173894 11.765217391304347  4.278260869565216 11.895652173913044  C 4.539130434782607 11.97391304347826  4.852173913043477 11.869565217391305  5.0086956521739125 11.634782608695653  C 5.217391304347825 11.295652173913044  5.582608695652173 11.08695652173913  5.999999999999999 11.08695652173913  C 6.4173913043478255 11.08695652173913  6.756521739130434 11.295652173913043  6.991304347826087 11.634782608695653  C 7.121739130434781 11.817391304347828  7.330434782608695 11.921739130434784  7.539130434782608 11.921739130434784  C 7.591304347826087 11.921739130434784  7.669565217391304 11.921739130434784  7.721739130434783 11.895652173913044  C 8.165217391304349 11.765217391304347  8.582608695652173 11.582608695652173  8.97391304347826 11.373913043478261  C 9.208695652173912 11.243478260869566  9.365217391304347 10.956521739130434  9.286956521739132 10.669565217391304  C 9.208695652173915 10.278260869565216  9.31304347826087 9.86086956521739  9.600000000000001 9.6  C 9.886956521739132 9.31304347826087  10.27826086956522 9.208695652173912  10.669565217391305 9.286956521739128  C 10.930434782608696 9.339130434782607  11.217391304347828 9.208695652173912  11.373913043478263 8.973913043478259  C 11.608695652173916 8.582608695652173  11.76521739130435 8.139130434782606  11.895652173913046 7.721739130434781  Z M 11.11304347826087 7.591304347826085  C 11.008695652173913 7.904347826086957  10.878260869565219 8.217391304347824  10.721739130434784 8.504347826086956  C 10.095652173913043 8.399999999999999  9.469565217391306 8.60869565217391  9.02608695652174 9.052173913043477  C 8.582608695652173 9.495652173913044  8.373913043478261 10.121739130434781  8.478260869565219 10.747826086956522  C 8.191304347826087 10.904347826086957  7.878260869565219 11.03478260869565  7.565217391304348 11.139130434782608  C 7.199999999999999 10.643478260869564  6.626086956521738 10.330434782608695  5.973913043478261 10.330434782608695  C 5.3478260869565215 10.330434782608695  4.7739130434782595 10.617391304347825  4.3826086956521735 11.139130434782608  C 4.069565217391304 11.03478260869565  3.7565217391304344 10.904347826086957  3.4695652173913034 10.747826086956522  C 3.5739130434782593 10.121739130434781  3.3652173913043475 9.495652173913044  2.9217391304347813 9.052173913043477  C 2.4782608695652164 8.60869565217391  1.852173913043477 8.399999999999999  1.226086956521738 8.504347826086956  C 1.0695652173913033 8.217391304347824  0.9391304347826076 7.904347826086957  0.834782608695651 7.591304347826085  C 1.3304347826086946 7.226086956521737  1.6434782608695642 6.652173913043476  1.6434782608695642 5.999999999999998  C 1.6434782608695642 5.373913043478259  1.3565217391304336 4.799999999999997  0.834782608695651 4.408695652173911  C 0.9391304347826076 4.095652173913042  1.0695652173913033 3.782608695652172  1.226086956521738 3.495652173913041  C 1.852173913043477 3.599999999999997  2.4782608695652164 3.391304347826085  2.9217391304347813 2.947826086956519  C 3.3652173913043466 2.504347826086954  3.5739130434782593 1.8782608695652145  3.4695652173913034 1.2521739130434757  C 3.7565217391304344 1.095652173913041  4.069565217391304 0.9652173913043453  4.3826086956521735 0.8608695652173887  C 4.74782608695652 1.3565217391304323  5.321739130434782 1.6695652173913018  5.973913043478261 1.6695652173913018  C 6.6 1.6695652173913018  7.173913043478261 1.3826086956521713  7.565217391304348 0.8608695652173887  C 7.878260869565219 0.9652173913043453  8.191304347826087 1.095652173913041  8.478260869565219 1.2521739130434757  C 8.373913043478261 1.8782608695652145  8.582608695652173 2.504347826086954  9.02608695652174 2.947826086956519  C 9.469565217391306 3.3913043478260843  10.095652173913043 3.599999999999997  10.721739130434784 3.495652173913041  C 10.878260869565219 3.782608695652172  11.008695652173913 4.095652173913042  11.11304347826087 4.408695652173911  C 10.617391304347827 4.773913043478258  10.304347826086957 5.34782608695652  10.304347826086957 5.999999999999998  C 10.304347826086957 6.626086956521737  10.591304347826087 7.199999999999998  11.11304347826087 7.591304347826085  Z " fill-rule="evenodd" />
    </mask>
  </defs>
  <g transform="matrix(1 0 0 1 -1410 -265 )">
    <path d="M 9 6  C 9 4.356521739130436  7.643478260869565 3  6 3  C 4.356521739130434 3  3 4.356521739130434  3 6  C 3 7.643478260869565  4.356521739130434 9  6 9  C 7.643478260869565 9  9 7.643478260869565  9 6  Z M 8.217391304347826 6  C 8.217391304347826 7.2260869565217405  7.2260869565217405 8.217391304347826  6 8.217391304347826  C 4.773913043478261 8.217391304347826  3.782608695652174 7.2260869565217405  3.782608695652174 6  C 3.782608695652174 4.7739130434782595  4.773913043478261 3.782608695652174  6 3.782608695652174  C 7.2260869565217405 3.782608695652174  8.217391304347826 4.773913043478261  8.217391304347826 6  Z M 11.895652173913046 7.721739130434781  C 11.973913043478262 7.4347826086956506  11.869565217391306 7.147826086956519  11.634782608695653 6.991304347826087  C 11.295652173913044 6.782608695652174  11.08695652173913 6.4173913043478255  11.08695652173913 5.999999999999999  C 11.08695652173913 5.582608695652174  11.295652173913043 5.243478260869565  11.634782608695653 5.0086956521739125  C 11.869565217391305 4.852173913043477  11.97391304347826 4.565217391304347  11.895652173913044 4.278260869565216  C 11.765217391304347 3.8347826086956514  11.582608695652173 3.4173913043478246  11.373913043478261 3.0260869565217376  C 11.243478260869566 2.791304347826086  10.956521739130434 2.6347826086956507  10.669565217391304 2.713043478260868  C 10.278260869565216 2.791304347826086  9.88695652173913 2.6869565217391287  9.6 2.3999999999999986  C 9.31304347826087 2.113043478260868  9.208695652173912 1.7217391304347816  9.286956521739128 1.3304347826086946  C 9.339130434782607 1.0695652173913033  9.208695652173912 0.7826086956521731  8.973913043478259 0.6260869565217378  C 8.582608695652173 0.39130434782608553  8.139130434782606 0.23478260869565087  7.721739130434781 0.10434782608695523  C 7.46086956521739 0.026086956521737648  7.147826086956519 0.13043478260869426  6.991304347826087 0.3652173913043465  C 6.782608695652174 0.7043478260869553  6.4173913043478255 0.9130434782608681  5.999999999999999 0.9130434782608681  C 5.582608695652174 0.9130434782608681  5.243478260869565 0.7043478260869549  5.0086956521739125 0.3652173913043465  C 4.852173913043477 0.13043478260869426  4.565217391304347 0.026086956521737648  4.278260869565216 0.10434782608695523  C 3.8347826086956514 0.23478260869565087  3.4173913043478246 0.41739130434782457  3.0260869565217376 0.6260869565217378  C 2.791304347826086 0.7565217391304334  2.6347826086956507 1.0434782608695639  2.713043478260868 1.3304347826086942  C 2.791304347826086 1.721739130434781  2.6869565217391287 2.139130434782608  2.3999999999999986 2.3999999999999986  C 2.113043478260868 2.6869565217391296  1.7217391304347816 2.791304347826086  1.3304347826086946 2.713043478260868  C 1.0695652173913033 2.66086956521739  0.7826086956521731 2.791304347826086  0.6260869565217378 3.0260869565217376  C 0.39130434782608553 3.4173913043478246  0.23478260869565087 3.8608695652173894  0.10434782608695523 4.278260869565216  C 0.026086956521737648 4.539130434782607  0.13043478260869426 4.852173913043477  0.3652173913043465 5.0086956521739125  C 0.7043478260869553 5.217391304347825  0.9130434782608681 5.582608695652173  0.9130434782608681 5.999999999999999  C 0.9130434782608681 6.4173913043478255  0.7043478260869549 6.756521739130434  0.3652173913043465 6.991304347826087  C 0.13043478260869426 7.147826086956522  0.026086956521737648 7.434782608695652  0.10434782608695523 7.721739130434781  C 0.23478260869565087 8.165217391304347  0.41739130434782457 8.582608695652173  0.6260869565217378 8.973913043478259  C 0.7565217391304334 9.20869565217391  1.0434782608695639 9.339130434782607  1.3304347826086942 9.286956521739128  C 1.721739130434781 9.208695652173912  2.139130434782608 9.31304347826087  2.3999999999999986 9.6  C 2.6869565217391296 9.88695652173913  2.791304347826086 10.278260869565216  2.713043478260868 10.669565217391304  C 2.66086956521739 10.930434782608696  2.791304347826086 11.217391304347826  3.0260869565217376 11.373913043478261  C 3.4173913043478246 11.608695652173912  3.8608695652173894 11.765217391304347  4.278260869565216 11.895652173913044  C 4.539130434782607 11.97391304347826  4.852173913043477 11.869565217391305  5.0086956521739125 11.634782608695653  C 5.217391304347825 11.295652173913044  5.582608695652173 11.08695652173913  5.999999999999999 11.08695652173913  C 6.4173913043478255 11.08695652173913  6.756521739130434 11.295652173913043  6.991304347826087 11.634782608695653  C 7.121739130434781 11.817391304347828  7.330434782608695 11.921739130434784  7.539130434782608 11.921739130434784  C 7.591304347826087 11.921739130434784  7.669565217391304 11.921739130434784  7.721739130434783 11.895652173913044  C 8.165217391304349 11.765217391304347  8.582608695652173 11.582608695652173  8.97391304347826 11.373913043478261  C 9.208695652173912 11.243478260869566  9.365217391304347 10.956521739130434  9.286956521739132 10.669565217391304  C 9.208695652173915 10.278260869565216  9.31304347826087 9.86086956521739  9.600000000000001 9.6  C 9.886956521739132 9.31304347826087  10.27826086956522 9.208695652173912  10.669565217391305 9.286956521739128  C 10.930434782608696 9.339130434782607  11.217391304347828 9.208695652173912  11.373913043478263 8.973913043478259  C 11.608695652173916 8.582608695652173  11.76521739130435 8.139130434782606  11.895652173913046 7.721739130434781  Z M 11.11304347826087 7.591304347826085  C 11.008695652173913 7.904347826086957  10.878260869565219 8.217391304347824  10.721739130434784 8.504347826086956  C 10.095652173913043 8.399999999999999  9.469565217391306 8.60869565217391  9.02608695652174 9.052173913043477  C 8.582608695652173 9.495652173913044  8.373913043478261 10.121739130434781  8.478260869565219 10.747826086956522  C 8.191304347826087 10.904347826086957  7.878260869565219 11.03478260869565  7.565217391304348 11.139130434782608  C 7.199999999999999 10.643478260869564  6.626086956521738 10.330434782608695  5.973913043478261 10.330434782608695  C 5.3478260869565215 10.330434782608695  4.7739130434782595 10.617391304347825  4.3826086956521735 11.139130434782608  C 4.069565217391304 11.03478260869565  3.7565217391304344 10.904347826086957  3.4695652173913034 10.747826086956522  C 3.5739130434782593 10.121739130434781  3.3652173913043475 9.495652173913044  2.9217391304347813 9.052173913043477  C 2.4782608695652164 8.60869565217391  1.852173913043477 8.399999999999999  1.226086956521738 8.504347826086956  C 1.0695652173913033 8.217391304347824  0.9391304347826076 7.904347826086957  0.834782608695651 7.591304347826085  C 1.3304347826086946 7.226086956521737  1.6434782608695642 6.652173913043476  1.6434782608695642 5.999999999999998  C 1.6434782608695642 5.373913043478259  1.3565217391304336 4.799999999999997  0.834782608695651 4.408695652173911  C 0.9391304347826076 4.095652173913042  1.0695652173913033 3.782608695652172  1.226086956521738 3.495652173913041  C 1.852173913043477 3.599999999999997  2.4782608695652164 3.391304347826085  2.9217391304347813 2.947826086956519  C 3.3652173913043466 2.504347826086954  3.5739130434782593 1.8782608695652145  3.4695652173913034 1.2521739130434757  C 3.7565217391304344 1.095652173913041  4.069565217391304 0.9652173913043453  4.3826086956521735 0.8608695652173887  C 4.74782608695652 1.3565217391304323  5.321739130434782 1.6695652173913018  5.973913043478261 1.6695652173913018  C 6.6 1.6695652173913018  7.173913043478261 1.3826086956521713  7.565217391304348 0.8608695652173887  C 7.878260869565219 0.9652173913043453  8.191304347826087 1.095652173913041  8.478260869565219 1.2521739130434757  C 8.373913043478261 1.8782608695652145  8.582608695652173 2.504347826086954  9.02608695652174 2.947826086956519  C 9.469565217391306 3.3913043478260843  10.095652173913043 3.599999999999997  10.721739130434784 3.495652173913041  C 10.878260869565219 3.782608695652172  11.008695652173913 4.095652173913042  11.11304347826087 4.408695652173911  C 10.617391304347827 4.773913043478258  10.304347826086957 5.34782608695652  10.304347826086957 5.999999999999998  C 10.304347826086957 6.626086956521737  10.591304347826087 7.199999999999998  11.11304347826087 7.591304347826085  Z " fill-rule="nonzero" fill="rgba(0, 0, 0, 1)" stroke="none" transform="matrix(1 0 0 1 1410 265 )" class="fill" />
    <path d="M 9 6  C 9 4.356521739130436  7.643478260869565 3  6 3  C 4.356521739130434 3  3 4.356521739130434  3 6  C 3 7.643478260869565  4.356521739130434 9  6 9  C 7.643478260869565 9  9 7.643478260869565  9 6  Z " stroke-width="0" stroke-dasharray="0" stroke="rgba(255, 255, 255, 0)" fill="none" transform="matrix(1 0 0 1 1410 265 )" class="stroke" mask="url(#Clip363)" />
    <path d="M 8.217391304347826 6  C 8.217391304347826 7.2260869565217405  7.2260869565217405 8.217391304347826  6 8.217391304347826  C 4.773913043478261 8.217391304347826  3.782608695652174 7.2260869565217405  3.782608695652174 6  C 3.782608695652174 4.7739130434782595  4.773913043478261 3.782608695652174  6 3.782608695652174  C 7.2260869565217405 3.782608695652174  8.217391304347826 4.773913043478261  8.217391304347826 6  Z " stroke-width="0" stroke-dasharray="0" stroke="rgba(255, 255, 255, 0)" fill="none" transform="matrix(1 0 0 1 1410 265 )" class="stroke" mask="url(#Clip363)" />
    <path d="M 11.895652173913046 7.721739130434781  C 11.973913043478262 7.4347826086956506  11.869565217391306 7.147826086956519  11.634782608695653 6.991304347826087  C 11.295652173913044 6.782608695652174  11.08695652173913 6.4173913043478255  11.08695652173913 5.999999999999999  C 11.08695652173913 5.582608695652174  11.295652173913043 5.243478260869565  11.634782608695653 5.0086956521739125  C 11.869565217391305 4.852173913043477  11.97391304347826 4.565217391304347  11.895652173913044 4.278260869565216  C 11.765217391304347 3.8347826086956514  11.582608695652173 3.4173913043478246  11.373913043478261 3.0260869565217376  C 11.243478260869566 2.791304347826086  10.956521739130434 2.6347826086956507  10.669565217391304 2.713043478260868  C 10.278260869565216 2.791304347826086  9.88695652173913 2.6869565217391287  9.6 2.3999999999999986  C 9.31304347826087 2.113043478260868  9.208695652173912 1.7217391304347816  9.286956521739128 1.3304347826086946  C 9.339130434782607 1.0695652173913033  9.208695652173912 0.7826086956521731  8.973913043478259 0.6260869565217378  C 8.582608695652173 0.39130434782608553  8.139130434782606 0.23478260869565087  7.721739130434781 0.10434782608695523  C 7.46086956521739 0.026086956521737648  7.147826086956519 0.13043478260869426  6.991304347826087 0.3652173913043465  C 6.782608695652174 0.7043478260869553  6.4173913043478255 0.9130434782608681  5.999999999999999 0.9130434782608681  C 5.582608695652174 0.9130434782608681  5.243478260869565 0.7043478260869549  5.0086956521739125 0.3652173913043465  C 4.852173913043477 0.13043478260869426  4.565217391304347 0.026086956521737648  4.278260869565216 0.10434782608695523  C 3.8347826086956514 0.23478260869565087  3.4173913043478246 0.41739130434782457  3.0260869565217376 0.6260869565217378  C 2.791304347826086 0.7565217391304334  2.6347826086956507 1.0434782608695639  2.713043478260868 1.3304347826086942  C 2.791304347826086 1.721739130434781  2.6869565217391287 2.139130434782608  2.3999999999999986 2.3999999999999986  C 2.113043478260868 2.6869565217391296  1.7217391304347816 2.791304347826086  1.3304347826086946 2.713043478260868  C 1.0695652173913033 2.66086956521739  0.7826086956521731 2.791304347826086  0.6260869565217378 3.0260869565217376  C 0.39130434782608553 3.4173913043478246  0.23478260869565087 3.8608695652173894  0.10434782608695523 4.278260869565216  C 0.026086956521737648 4.539130434782607  0.13043478260869426 4.852173913043477  0.3652173913043465 5.0086956521739125  C 0.7043478260869553 5.217391304347825  0.9130434782608681 5.582608695652173  0.9130434782608681 5.999999999999999  C 0.9130434782608681 6.4173913043478255  0.7043478260869549 6.756521739130434  0.3652173913043465 6.991304347826087  C 0.13043478260869426 7.147826086956522  0.026086956521737648 7.434782608695652  0.10434782608695523 7.721739130434781  C 0.23478260869565087 8.165217391304347  0.41739130434782457 8.582608695652173  0.6260869565217378 8.973913043478259  C 0.7565217391304334 9.20869565217391  1.0434782608695639 9.339130434782607  1.3304347826086942 9.286956521739128  C 1.721739130434781 9.208695652173912  2.139130434782608 9.31304347826087  2.3999999999999986 9.6  C 2.6869565217391296 9.88695652173913  2.791304347826086 10.278260869565216  2.713043478260868 10.669565217391304  C 2.66086956521739 10.930434782608696  2.791304347826086 11.217391304347826  3.0260869565217376 11.373913043478261  C 3.4173913043478246 11.608695652173912  3.8608695652173894 11.765217391304347  4.278260869565216 11.895652173913044  C 4.539130434782607 11.97391304347826  4.852173913043477 11.869565217391305  5.0086956521739125 11.634782608695653  C 5.217391304347825 11.295652173913044  5.582608695652173 11.08695652173913  5.999999999999999 11.08695652173913  C 6.4173913043478255 11.08695652173913  6.756521739130434 11.295652173913043  6.991304347826087 11.634782608695653  C 7.121739130434781 11.817391304347828  7.330434782608695 11.921739130434784  7.539130434782608 11.921739130434784  C 7.591304347826087 11.921739130434784  7.669565217391304 11.921739130434784  7.721739130434783 11.895652173913044  C 8.165217391304349 11.765217391304347  8.582608695652173 11.582608695652173  8.97391304347826 11.373913043478261  C 9.208695652173912 11.243478260869566  9.365217391304347 10.956521739130434  9.286956521739132 10.669565217391304  C 9.208695652173915 10.278260869565216  9.31304347826087 9.86086956521739  9.600000000000001 9.6  C 9.886956521739132 9.31304347826087  10.27826086956522 9.208695652173912  10.669565217391305 9.286956521739128  C 10.930434782608696 9.339130434782607  11.217391304347828 9.208695652173912  11.373913043478263 8.973913043478259  C 11.608695652173916 8.582608695652173  11.76521739130435 8.139130434782606  11.895652173913046 7.721739130434781  Z " stroke-width="0" stroke-dasharray="0" stroke="rgba(255, 255, 255, 0)" fill="none" transform="matrix(1 0 0 1 1410 265 )" class="stroke" mask="url(#Clip363)" />
    <path d="M 11.11304347826087 7.591304347826085  C 11.008695652173913 7.904347826086957  10.878260869565219 8.217391304347824  10.721739130434784 8.504347826086956  C 10.095652173913043 8.399999999999999  9.469565217391306 8.60869565217391  9.02608695652174 9.052173913043477  C 8.582608695652173 9.495652173913044  8.373913043478261 10.121739130434781  8.478260869565219 10.747826086956522  C 8.191304347826087 10.904347826086957  7.878260869565219 11.03478260869565  7.565217391304348 11.139130434782608  C 7.199999999999999 10.643478260869564  6.626086956521738 10.330434782608695  5.973913043478261 10.330434782608695  C 5.3478260869565215 10.330434782608695  4.7739130434782595 10.617391304347825  4.3826086956521735 11.139130434782608  C 4.069565217391304 11.03478260869565  3.7565217391304344 10.904347826086957  3.4695652173913034 10.747826086956522  C 3.5739130434782593 10.121739130434781  3.3652173913043475 9.495652173913044  2.9217391304347813 9.052173913043477  C 2.4782608695652164 8.60869565217391  1.852173913043477 8.399999999999999  1.226086956521738 8.504347826086956  C 1.0695652173913033 8.217391304347824  0.9391304347826076 7.904347826086957  0.834782608695651 7.591304347826085  C 1.3304347826086946 7.226086956521737  1.6434782608695642 6.652173913043476  1.6434782608695642 5.999999999999998  C 1.6434782608695642 5.373913043478259  1.3565217391304336 4.799999999999997  0.834782608695651 4.408695652173911  C 0.9391304347826076 4.095652173913042  1.0695652173913033 3.782608695652172  1.226086956521738 3.495652173913041  C 1.852173913043477 3.599999999999997  2.4782608695652164 3.391304347826085  2.9217391304347813 2.947826086956519  C 3.3652173913043466 2.504347826086954  3.5739130434782593 1.8782608695652145  3.4695652173913034 1.2521739130434757  C 3.7565217391304344 1.095652173913041  4.069565217391304 0.9652173913043453  4.3826086956521735 0.8608695652173887  C 4.74782608695652 1.3565217391304323  5.321739130434782 1.6695652173913018  5.973913043478261 1.6695652173913018  C 6.6 1.6695652173913018  7.173913043478261 1.3826086956521713  7.565217391304348 0.8608695652173887  C 7.878260869565219 0.9652173913043453  8.191304347826087 1.095652173913041  8.478260869565219 1.2521739130434757  C 8.373913043478261 1.8782608695652145  8.582608695652173 2.504347826086954  9.02608695652174 2.947826086956519  C 9.469565217391306 3.3913043478260843  10.095652173913043 3.599999999999997  10.721739130434784 3.495652173913041  C 10.878260869565219 3.782608695652172  11.008695652173913 4.095652173913042  11.11304347826087 4.408695652173911  C 10.617391304347827 4.773913043478258  10.304347826086957 5.34782608695652  10.304347826086957 5.999999999999998  C 10.304347826086957 6.626086956521737  10.591304347826087 7.199999999999998  11.11304347826087 7.591304347826085  Z " stroke-width="0" stroke-dasharray="0" stroke="rgba(255, 255, 255, 0)" fill="none" transform="matrix(1 0 0 1 1410 265 )" class="stroke" mask="url(#Clip363)" />
  </g>
</svg>