<?xml version="1.0" encoding="utf-8"?>
<svg version="1.1" xmlns:xlink="http://www.w3.org/1999/xlink" width="33px" height="33px" xmlns="http://www.w3.org/2000/svg">
  <defs>
    <pattern id="BGPattern" patternUnits="userSpaceOnUse" alignment="0 0" imageRepeat="None" />
  </defs>
  <g transform="matrix(1 0 0 1 -286 -347 )">
    <path d="M 0 0.5714285714285714  L 0 31.5  L 29.22020202020204 31.5  C 31.01220202020203 31.428571428571427  31.709090909090932 29.805714285714267  31.5 26.285714285714285  L 31.5 5.714285714285714  C 31.709090909090932 2.1942857142857326  31.01220202020203 0.5714285714285714  29.22020202020204 0.5714285714285714  L 0 0.5714285714285714  Z " fill-rule="nonzero" fill="rgba(235, 235, 235, 1)" stroke="none" transform="matrix(1 0 0 1 286 347 )" class="fill" />
    <path d="M 0 31.5  L 29.22020202020204 31.5  C 31.01220202020203 31.428571428571427  31.709090909090932 29.805714285714267  31.5 26.285714285714285  L 31.5 5.714285714285714  C 31.709090909090932 2.1942857142857326  31.01220202020203 0.5714285714285714  29.22020202020204 0.5714285714285714  L 0 0.5714285714285714  " stroke-width="1" stroke-dasharray="0" stroke="rgba(217, 217, 217, 1)" fill="none" transform="matrix(1 0 0 1 286 347 )" class="stroke" />
  </g>
</svg>