<?xml version="1.0" encoding="utf-8"?>
<svg version="1.1" xmlns:xlink="http://www.w3.org/1999/xlink" width="50px" height="50px" xmlns="http://www.w3.org/2000/svg">
  <defs>
    <pattern id="BGPattern" patternUnits="userSpaceOnUse" alignment="0 0" imageRepeat="None" />
    <mask fill="white" id="Clip298">
      <path d="M 0 50  L 0 0  L 50 0  L 50 50  L 0 50  Z " fill-rule="evenodd" />
    </mask>
  </defs>
  <g transform="matrix(1 0 0 1 -105 -333 )">
    <path d="M 0 50  L 0 0  L 50 0  L 50 50  L 0 50  Z " fill-rule="nonzero" fill="rgba(245, 245, 247, 1)" stroke="none" transform="matrix(1 0 0 1 105 333 )" class="fill" />
    <path d="M 0 50  L 0 0  L 50 0  L 50 50  L 0 50  Z " stroke-width="2" stroke-dasharray="0" stroke="rgba(223, 230, 236, 1)" fill="none" transform="matrix(1 0 0 1 105 333 )" class="stroke" mask="url(#Clip298)" />
    <path d="M 49.64644660940672 0.35355339059327373  L 0.35355339059327373 49.64644660940672  M 0.35355339059327373 0.35355339059327373  L 49.64644660940672 49.64644660940672  " stroke-width="1" stroke-dasharray="0" stroke="rgba(223, 230, 236, 1)" fill="none" transform="matrix(1 0 0 1 105 333 )" class="stroke" />
  </g>
</svg>