<?xml version="1.0" encoding="utf-8"?>
<svg version="1.1" xmlns:xlink="http://www.w3.org/1999/xlink" width="252px" height="124px" xmlns="http://www.w3.org/2000/svg">
  <defs>
    <pattern id="BGPattern" patternUnits="userSpaceOnUse" alignment="0 0" imageRepeat="None" />
    <mask fill="white" id="Clip459">
      <path d="M 5 7  L 13.5 7  L 20.499984851506383 1.5148493730521294E-05  L 27.49996992787939 7  L 235 7  C 237.8 7  240 9.199999999999818  240 12  L 240 107  C 240 109.80000000000018  237.8 112  235 112  L 5 112  C 2.200000000000003 112  0 109.80000000000018  0 107  L 0 12  C 0 9.199999999999818  2.200000000000003 7  5 7  Z " fill-rule="evenodd" />
    </mask>
  </defs>
  <g transform="matrix(1 0 0 1 -20 -1975 )">
    <path d="M 5 7  L 13.5 7  L 20.499984851506383 1.5148493730521294E-05  L 27.49996992787939 7  L 235 7  C 237.8 7  240 9.199999999999818  240 12  L 240 107  C 240 109.80000000000018  237.8 112  235 112  L 5 112  C 2.200000000000003 112  0 109.80000000000018  0 107  L 0 12  C 0 9.199999999999818  2.200000000000003 7  5 7  Z " fill-rule="nonzero" fill="rgba(255, 255, 255, 1)" stroke="none" transform="matrix(1 0 0 1 26 1979 )" class="fill" />
    <path d="M 5 7  L 13.5 7  L 20.499984851506383 1.5148493730521294E-05  L 27.49996992787939 7  L 235 7  C 237.8 7  240 9.199999999999818  240 12  L 240 107  C 240 109.80000000000018  237.8 112  235 112  L 5 112  C 2.200000000000003 112  0 109.80000000000018  0 107  L 0 12  C 0 9.199999999999818  2.200000000000003 7  5 7  Z " stroke-width="2" stroke-dasharray="0" stroke="rgba(229, 230, 233, 1)" fill="none" transform="matrix(1 0 0 1 26 1979 )" class="stroke" mask="url(#Clip459)" />
  </g>
  <style>svg { filter: drop-shadow(0px 2px 3px rgba(170, 170, 170, 1)); }</style>
</svg>