<?xml version="1.0" encoding="utf-8"?>
<svg version="1.1" xmlns:xlink="http://www.w3.org/1999/xlink" width="80px" height="28px" xmlns="http://www.w3.org/2000/svg">
  <defs>
    <pattern id="BGPattern" patternUnits="userSpaceOnUse" alignment="0 0" imageRepeat="None" />
    <mask fill="white" id="Clip51">
      <path d="M 0 26  L 0 2  C 0 0.880000000000109  0.8799999999999955 0  2 0  L 38 0  L 78 0  C 79.12 0  80 0.880000000000109  80 2  L 80 26  C 80 27.11999999999989  79.12 28  78 28  L 2 28  C 0.8799999999999955 28  0 27.11999999999989  0 26  Z " fill-rule="evenodd" />
    </mask>
  </defs>
  <g transform="matrix(1 0 0 1 -410 -3028 )">
    <path d="M 0 26  L 0 2  C 0 0.880000000000109  0.8799999999999955 0  2 0  L 38 0  L 78 0  C 79.12 0  80 0.880000000000109  80 2  L 80 26  C 80 27.11999999999989  79.12 28  78 28  L 2 28  C 0.8799999999999955 28  0 27.11999999999989  0 26  Z " fill-rule="nonzero" fill="rgba(255, 169, 20, 1)" stroke="none" transform="matrix(1 0 0 1 410 3028 )" class="fill" />
    <path d="M 0 26  L 0 2  C 0 0.880000000000109  0.8799999999999955 0  2 0  L 38 0  L 78 0  C 79.12 0  80 0.880000000000109  80 2  L 80 26  C 80 27.11999999999989  79.12 28  78 28  L 2 28  C 0.8799999999999955 28  0 27.11999999999989  0 26  Z " stroke-width="0" stroke-dasharray="0" stroke="rgba(121, 121, 121, 1)" fill="none" transform="matrix(1 0 0 1 410 3028 )" class="stroke" mask="url(#Clip51)" />
  </g>
</svg>