<?xml version="1.0" encoding="utf-8"?>
<svg version="1.1" xmlns:xlink="http://www.w3.org/1999/xlink" width="13px" height="13px" xmlns="http://www.w3.org/2000/svg">
  <defs>
    <pattern id="BGPattern" patternUnits="userSpaceOnUse" alignment="0 0" imageRepeat="None" />
    <mask fill="white" id="Clip53">
      <path d="M 7.778174590000002 6.3639610300000005  L 12.0208153 10.6066017  C 12.4113396 10.997126  12.4113396 11.630291  12.0208153 12.0208153  C 11.630291 12.4113396  10.997126 12.4113396  10.6066017 12.0208153  L 6.3639610300000005 7.778174590000002  L 2.1213203399999996 12.0208153  C 1.73079605 12.4113396  1.0976310699999998 12.4113396  0.7071067800000002 12.0208153  C 0.31658249000000005 11.630291  0.31658249000000005 10.997126  0.7071067800000002 10.6066017  L 4.94974747 6.3639610300000005  L 0.7071067800000002 2.1213203399999996  C 0.31658249000000005 1.73079605  0.31658249000000005 1.0976310699999998  0.7071067800000002 0.7071067800000002  C 1.0976310699999998 0.31658249000000005  1.73079605 0.31658249000000005  2.1213203399999996 0.7071067800000002  L 6.3639610300000005 4.94974747  L 10.6066017 0.7071067800000002  C 10.997126 0.31658249000000005  11.630291 0.31658249000000005  12.0208153 0.7071067800000002  C 12.4113396 1.0976310699999998  12.4113396 1.73079605  12.0208153 2.1213203399999996  L 7.778174590000002 6.3639610300000005  Z " fill-rule="evenodd" />
    </mask>
  </defs>
  <g transform="matrix(1 0 0 1 -117 -317 )">
    <path d="M 7.778174590000002 6.3639610300000005  L 12.0208153 10.6066017  C 12.4113396 10.997126  12.4113396 11.630291  12.0208153 12.0208153  C 11.630291 12.4113396  10.997126 12.4113396  10.6066017 12.0208153  L 6.3639610300000005 7.778174590000002  L 2.1213203399999996 12.0208153  C 1.73079605 12.4113396  1.0976310699999998 12.4113396  0.7071067800000002 12.0208153  C 0.31658249000000005 11.630291  0.31658249000000005 10.997126  0.7071067800000002 10.6066017  L 4.94974747 6.3639610300000005  L 0.7071067800000002 2.1213203399999996  C 0.31658249000000005 1.73079605  0.31658249000000005 1.0976310699999998  0.7071067800000002 0.7071067800000002  C 1.0976310699999998 0.31658249000000005  1.73079605 0.31658249000000005  2.1213203399999996 0.7071067800000002  L 6.3639610300000005 4.94974747  L 10.6066017 0.7071067800000002  C 10.997126 0.31658249000000005  11.630291 0.31658249000000005  12.0208153 0.7071067800000002  C 12.4113396 1.0976310699999998  12.4113396 1.73079605  12.0208153 2.1213203399999996  L 7.778174590000002 6.3639610300000005  Z " fill-rule="nonzero" fill="rgba(250, 65, 80, 1)" stroke="none" transform="matrix(1 0 0 1 117 317 )" class="fill" />
    <path d="M 7.778174590000002 6.3639610300000005  L 12.0208153 10.6066017  C 12.4113396 10.997126  12.4113396 11.630291  12.0208153 12.0208153  C 11.630291 12.4113396  10.997126 12.4113396  10.6066017 12.0208153  L 6.3639610300000005 7.778174590000002  L 2.1213203399999996 12.0208153  C 1.73079605 12.4113396  1.0976310699999998 12.4113396  0.7071067800000002 12.0208153  C 0.31658249000000005 11.630291  0.31658249000000005 10.997126  0.7071067800000002 10.6066017  L 4.94974747 6.3639610300000005  L 0.7071067800000002 2.1213203399999996  C 0.31658249000000005 1.73079605  0.31658249000000005 1.0976310699999998  0.7071067800000002 0.7071067800000002  C 1.0976310699999998 0.31658249000000005  1.73079605 0.31658249000000005  2.1213203399999996 0.7071067800000002  L 6.3639610300000005 4.94974747  L 10.6066017 0.7071067800000002  C 10.997126 0.31658249000000005  11.630291 0.31658249000000005  12.0208153 0.7071067800000002  C 12.4113396 1.0976310699999998  12.4113396 1.73079605  12.0208153 2.1213203399999996  L 7.778174590000002 6.3639610300000005  Z " stroke-width="0" stroke-dasharray="0" stroke="rgba(255, 255, 255, 0)" fill="none" transform="matrix(1 0 0 1 117 317 )" class="stroke" mask="url(#Clip53)" />
  </g>
</svg>