<?xml version="1.0" encoding="utf-8"?>
<svg version="1.1" xmlns:xlink="http://www.w3.org/1999/xlink" width="16px" height="11px" xmlns="http://www.w3.org/2000/svg">
  <defs>
    <pattern id="BGPattern" patternUnits="userSpaceOnUse" alignment="0 0" imageRepeat="None" />
    <mask fill="white" id="Clip52">
      <path d="M 5.30330086 8.131728  C 5.498563 8.3269901  5.81514549 8.3269901  6.01040764 8.131728  L 13.4350288 0.7071067800000002  C 13.8255531 0.31658249000000005  14.4587181 0.31658249000000005  14.8492424 0.7071067800000002  C 15.2397667 1.0976310700000003  15.2397667 1.7307960500000001  14.8492424 2.1213203399999996  L 6.36396103 10.6066017  C 5.97343674 10.997126  5.34027176 10.997126  4.94974747 10.6066017  L 0.707106781 6.3639610300000005  C 0.316582489 5.97343674  0.316582489 5.34027176  0.707106781 4.94974747  C 1.09763107 4.55922318  1.73079605 4.55922318  2.12132034 4.94974747  L 5.30330086 8.131728  Z " fill-rule="evenodd" />
    </mask>
  </defs>
  <g transform="matrix(1 0 0 1 -115 -144 )">
    <path d="M 5.30330086 8.131728  C 5.498563 8.3269901  5.81514549 8.3269901  6.01040764 8.131728  L 13.4350288 0.7071067800000002  C 13.8255531 0.31658249000000005  14.4587181 0.31658249000000005  14.8492424 0.7071067800000002  C 15.2397667 1.0976310700000003  15.2397667 1.7307960500000001  14.8492424 2.1213203399999996  L 6.36396103 10.6066017  C 5.97343674 10.997126  5.34027176 10.997126  4.94974747 10.6066017  L 0.707106781 6.3639610300000005  C 0.316582489 5.97343674  0.316582489 5.34027176  0.707106781 4.94974747  C 1.09763107 4.55922318  1.73079605 4.55922318  2.12132034 4.94974747  L 5.30330086 8.131728  Z " fill-rule="nonzero" fill="rgba(35, 200, 17, 1)" stroke="none" transform="matrix(1 0 0 1 115 144 )" class="fill" />
    <path d="M 5.30330086 8.131728  C 5.498563 8.3269901  5.81514549 8.3269901  6.01040764 8.131728  L 13.4350288 0.7071067800000002  C 13.8255531 0.31658249000000005  14.4587181 0.31658249000000005  14.8492424 0.7071067800000002  C 15.2397667 1.0976310700000003  15.2397667 1.7307960500000001  14.8492424 2.1213203399999996  L 6.36396103 10.6066017  C 5.97343674 10.997126  5.34027176 10.997126  4.94974747 10.6066017  L 0.707106781 6.3639610300000005  C 0.316582489 5.97343674  0.316582489 5.34027176  0.707106781 4.94974747  C 1.09763107 4.55922318  1.73079605 4.55922318  2.12132034 4.94974747  L 5.30330086 8.131728  Z " stroke-width="0" stroke-dasharray="0" stroke="rgba(255, 255, 255, 0)" fill="none" transform="matrix(1 0 0 1 115 144 )" class="stroke" mask="url(#Clip52)" />
  </g>
</svg>