<?xml version="1.0" encoding="utf-8"?>
<svg version="1.1" xmlns:xlink="http://www.w3.org/1999/xlink" width="252px" height="49px" xmlns="http://www.w3.org/2000/svg">
  <defs>
    <pattern id="BGPattern" patternUnits="userSpaceOnUse" alignment="0 0" imageRepeat="None" />
    <mask fill="white" id="Clip452">
      <path d="M 4 5.0000151484937305  L 13.5 5  L 20.499984851506383 1.5148493730521295E-05  L 27.49996992787942 5  L 236 5  C 238.79999999999995 5  240 6.199999999999819  240 9  L 240 33  C 240 35.80000000000018  238.79999999999995 37  236 37  L 4 37  C 1.2000000000000455 37  0 35.80000000000018  0 33  L 0 9  C 0 6.199999999999819  1.2000000000000455 5.0000151484937305  4 5.0000151484937305  Z " fill-rule="evenodd" />
    </mask>
  </defs>
  <g transform="matrix(1 0 0 1 -572 -128 )">
    <path d="M 4 5.0000151484937305  L 13.5 5  L 20.499984851506383 1.5148493730521295E-05  L 27.49996992787942 5  L 236 5  C 238.79999999999995 5  240 6.199999999999819  240 9  L 240 33  C 240 35.80000000000018  238.79999999999995 37  236 37  L 4 37  C 1.2000000000000455 37  0 35.80000000000018  0 33  L 0 9  C 0 6.199999999999819  1.2000000000000455 5.0000151484937305  4 5.0000151484937305  Z " fill-rule="nonzero" fill="rgba(255, 255, 255, 1)" stroke="none" transform="matrix(1 0 0 1 578 132 )" class="fill" />
    <path d="M 4 5.0000151484937305  L 13.5 5  L 20.499984851506383 1.5148493730521295E-05  L 27.49996992787942 5  L 236 5  C 238.79999999999995 5  240 6.199999999999819  240 9  L 240 33  C 240 35.80000000000018  238.79999999999995 37  236 37  L 4 37  C 1.2000000000000455 37  0 35.80000000000018  0 33  L 0 9  C 0 6.199999999999819  1.2000000000000455 5.0000151484937305  4 5.0000151484937305  Z " stroke-width="2" stroke-dasharray="0" stroke="rgba(229, 230, 233, 1)" fill="none" transform="matrix(1 0 0 1 578 132 )" class="stroke" mask="url(#Clip452)" />
  </g>
  <style>svg { filter: drop-shadow(0px 2px 3px rgba(217, 217, 217, 1)); }</style>
</svg>